<?xml version="1.0" encoding="utf-8"?>
<svg version="1.1" xmlns:xlink="http://www.w3.org/1999/xlink" width="1296px" height="630px" xmlns="http://www.w3.org/2000/svg">
  <defs>
    <linearGradient gradientUnits="userSpaceOnUse" x1="642" y1="0" x2="642" y2="613.8" id="LinearGradient6">
      <stop id="Stop7" stop-color="#81d3f8" stop-opacity="0.2901960784313726" offset="0" />
      <stop id="Stop8" stop-color="#555555" stop-opacity="0.2901960784313726" offset="1" />
    </linearGradient>
    <pattern id="BGPattern" patternUnits="userSpaceOnUse" alignment="0 0" imageRepeat="None" />
    <mask fill="white" id="Clip9">
      <path d="M 0 617  L 0 3  C 0 1.3199999999999998  1.3199999999999996 0  2.9999999999999996 0  L 1281 0  C 1282.68 0  1284 1.3199999999999998  1284 3  L 1284 617  C 1284 618.6800000000001  1282.68 620  1281 620  L 2.9999999999999996 620  C 1.3199999999999996 620  0 618.6800000000001  0 617  Z " fill-rule="evenodd" />
    </mask>
  </defs>
  <g transform="matrix(1 0 0 1 -350 -254 )">
    <path d="M 0 617  L 0 3  C 0 1.3199999999999998  1.3199999999999996 0  2.9999999999999996 0  L 1281 0  C 1282.68 0  1284 1.3199999999999998  1284 3  L 1284 617  C 1284 618.6800000000001  1282.68 620  1281 620  L 2.9999999999999996 620  C 1.3199999999999996 620  0 618.6800000000001  0 617  Z " fill-rule="nonzero" fill="url(#LinearGradient6)" stroke="none" transform="matrix(1 0 0 1 350 254 )" class="fill" />
    <path d="M 0 617  L 0 3  C 0 1.3199999999999998  1.3199999999999996 0  2.9999999999999996 0  L 1281 0  C 1282.68 0  1284 1.3199999999999998  1284 3  L 1284 617  C 1284 618.6800000000001  1282.68 620  1281 620  L 2.9999999999999996 620  C 1.3199999999999996 620  0 618.6800000000001  0 617  Z " stroke-width="0" stroke-dasharray="0" stroke="rgba(121, 121, 121, 1)" fill="none" transform="matrix(1 0 0 1 350 254 )" class="stroke" mask="url(#Clip9)" />
  </g>
  <style>svg { filter: drop-shadow(7px 5px 2.5px rgba(36, 71, 102, 1)); }</style>
</svg>