<?xml version="1.0" encoding="utf-8"?>
<svg version="1.1" xmlns:xlink="http://www.w3.org/1999/xlink" width="6px" height="10px" xmlns="http://www.w3.org/2000/svg">
  <defs>
    <pattern id="BGPattern" patternUnits="userSpaceOnUse" alignment="0 0" imageRepeat="None" />
    <mask fill="white" id="Clip29">
      <path d="M 0.07810000000000628 4.999700000000004  L 4.537700000000001 0.539999999999992  L 5.456999999999994 1.459299999999999  L 1.9166000000000025 4.999700000000004  L 5.456999999999994 8.539999999999992  L 4.537700000000001 9.459299999999999  L 0.07810000000000628 4.999700000000004  Z " fill-rule="evenodd" />
    </mask>
  </defs>
  <g transform="matrix(1 0 0 1 -125 -297 )">
    <path d="M 0.07810000000000628 4.999700000000004  L 4.537700000000001 0.539999999999992  L 5.456999999999994 1.459299999999999  L 1.9166000000000025 4.999700000000004  L 5.456999999999994 8.539999999999992  L 4.537700000000001 9.459299999999999  L 0.07810000000000628 4.999700000000004  Z " fill-rule="nonzero" fill="rgba(0, 0, 0, 0.6)" stroke="none" transform="matrix(1 0 0 1 125 297 )" class="fill" />
    <path d="M 0.07810000000000628 4.999700000000004  L 4.537700000000001 0.539999999999992  L 5.456999999999994 1.459299999999999  L 1.9166000000000025 4.999700000000004  L 5.456999999999994 8.539999999999992  L 4.537700000000001 9.459299999999999  L 0.07810000000000628 4.999700000000004  Z " stroke-width="0" stroke-dasharray="0" stroke="rgba(255, 255, 255, 0)" fill="none" transform="matrix(1 0 0 1 125 297 )" class="stroke" mask="url(#Clip29)" />
  </g>
</svg>