<?xml version="1.0" encoding="utf-8"?>
<svg version="1.1" xmlns:xlink="http://www.w3.org/1999/xlink" width="832px" height="310px" xmlns="http://www.w3.org/2000/svg">
  <defs>
    <linearGradient gradientUnits="userSpaceOnUse" x1="410" y1="0" x2="410" y2="297" id="LinearGradient242">
      <stop id="Stop243" stop-color="#81d3f8" stop-opacity="0.2901960784313726" offset="0" />
      <stop id="Stop244" stop-color="#555555" stop-opacity="0.2901960784313726" offset="1" />
    </linearGradient>
    <pattern id="BGPattern" patternUnits="userSpaceOnUse" alignment="0 0" imageRepeat="None" />
    <mask fill="white" id="Clip245">
      <path d="M 0 297  L 0 3  C 0 1.3199999999999998  1.3199999999999998 0  3 0  L 817 0  C 818.68 0  820 1.3199999999999998  820 3  L 820 297  C 820 298.68  818.68 300  817 300  L 3 300  C 1.3199999999999998 300  0 298.68  0 297  Z " fill-rule="evenodd" />
    </mask>
  </defs>
  <g transform="matrix(1 0 0 1 -669 -710 )">
    <path d="M 0 297  L 0 3  C 0 1.3199999999999998  1.3199999999999998 0  3 0  L 817 0  C 818.68 0  820 1.3199999999999998  820 3  L 820 297  C 820 298.68  818.68 300  817 300  L 3 300  C 1.3199999999999998 300  0 298.68  0 297  Z " fill-rule="nonzero" fill="url(#LinearGradient242)" stroke="none" transform="matrix(1 0 0 1 669 710 )" class="fill" />
    <path d="M 0 297  L 0 3  C 0 1.3199999999999998  1.3199999999999998 0  3 0  L 817 0  C 818.68 0  820 1.3199999999999998  820 3  L 820 297  C 820 298.68  818.68 300  817 300  L 3 300  C 1.3199999999999998 300  0 298.68  0 297  Z " stroke-width="0" stroke-dasharray="0" stroke="rgba(121, 121, 121, 1)" fill="none" transform="matrix(1 0 0 1 669 710 )" class="stroke" mask="url(#Clip245)" />
  </g>
  <style>svg { filter: drop-shadow(7px 5px 2.5px rgba(36, 71, 102, 1)); }</style>
</svg>